<?xml version="1.0" encoding="UTF-8" standalone="no"?>
<!-- Generator: Adobe Illustrator 13.0.0, SVG Export Plug-In . SVG Version: 6.00 Build 14948)  -->

<svg
   xmlns:dc="http://purl.org/dc/elements/1.1/"
   xmlns:cc="http://creativecommons.org/ns#"
   xmlns:rdf="http://www.w3.org/1999/02/22-rdf-syntax-ns#"
   xmlns:svg="http://www.w3.org/2000/svg"
   xmlns="http://www.w3.org/2000/svg"
   xmlns:sodipodi="http://sodipodi.sourceforge.net/DTD/sodipodi-0.dtd"
   xmlns:inkscape="http://www.inkscape.org/namespaces/inkscape"
   version="1.1"
   id="Layer_1"
   x="0px"
   y="0px"
   width="270"
   height="270"
   viewBox="0 0 270 270"
   enable-background="new 0 0 144 144"
   xml:space="preserve"
   inkscape:version="0.48.3.1 r9886"
   sodipodi:docname="free-geek-sticker-original-green.svg"><metadata
   id="metadata48"><rdf:RDF><cc:Work
       rdf:about=""><dc:format>image/svg+xml</dc:format><dc:type
         rdf:resource="http://purl.org/dc/dcmitype/StillImage" /><dc:title></dc:title></cc:Work></rdf:RDF></metadata><defs
   id="defs46">
	
	
	
	
	
	
	
	
	

	
	
	
	

	
	
	
	
</defs><sodipodi:namedview
   pagecolor="#ffffff"
   bordercolor="#666666"
   borderopacity="1"
   objecttolerance="10"
   gridtolerance="10"
   guidetolerance="10"
   inkscape:pageopacity="0"
   inkscape:pageshadow="2"
   inkscape:window-width="1615"
   inkscape:window-height="1026"
   id="namedview44"
   showgrid="false"
   inkscape:zoom="1.6388889"
   inkscape:cx="245.18298"
   inkscape:cy="92.5465"
   inkscape:window-x="65"
   inkscape:window-y="24"
   inkscape:window-maximized="1"
   inkscape:current-layer="Layer_1"
   fit-margin-top="0"
   fit-margin-left="0"
   fit-margin-right="0"
   fit-margin-bottom="0" />



<g
   id="g4000"
   transform="translate(-1.0624998e-7,126)"><rect
     y="-126"
     x="1.0624998e-07"
     style="fill:#003f04;fill-opacity:1"
     height="270"
     width="270"
     id="rect4183" /><g
     transform="matrix(1.875,0,0,1.875,-1.9743749,-127.08563)"
     id="g3907"><path
       style="fill:#ffffff"
       inkscape:connector-curvature="0"
       id="path6"
       d="M 24.806,21.371 V 32.57 h 14.702 v 6.649 H 24.806 V 54.064 H 17.822 V 14.721 h 22.23 v 6.65 H 24.806 z" /><path
       style="fill:#ffffff"
       inkscape:connector-curvature="0"
       id="path8"
       d="M 64.152,54.064 57.286,39.044 H 53.19 v 15.02 H 46.206 V 14.721 h 11.695 c 4.167,0 7.283,1.002 9.351,3.004 2.067,2.003 3.102,4.89 3.102,8.662 0,1.439 -0.166,2.742 -0.498,3.908 -0.331,1.167 -0.789,2.192 -1.373,3.077 -0.584,0.885 -1.278,1.644 -2.083,2.275 -0.805,0.632 -1.689,1.123 -2.652,1.473 l 8.263,16.945 H 64.152 z M 63.324,26.737 c 0,-0.992 -0.139,-1.828 -0.415,-2.508 C 62.633,23.549 62.234,23 61.714,22.581 61.193,22.164 60.55,21.862 59.784,21.677 59.018,21.492 58.146,21.4 57.168,21.4 H 53.19 v 10.966 h 4.167 c 2.083,0 3.598,-0.481 4.545,-1.444 0.948,-0.962 1.422,-2.357 1.422,-4.185 z" /><path
       style="fill:#ffffff"
       inkscape:connector-curvature="0"
       id="path10"
       d="M 75.303,54.064 V 14.721 h 22.916 v 6.65 H 82.287 v 9.449 h 14.488 v 6.649 H 82.287 v 9.945 h 16.902 v 6.649 H 75.303 z" /><path
       style="fill:#ffffff"
       inkscape:connector-curvature="0"
       id="path12"
       d="M 104.398,54.064 V 14.721 h 22.916 v 6.65 h -15.932 v 9.449 h 14.488 v 6.649 h -14.488 v 9.945 h 16.902 v 6.649 h -23.886 z" /></g><g
     transform="matrix(1.875,0,0,1.875,-1.8881249,-127.08563)"
     id="g3913"><path
       style="fill:#ffffff"
       inkscape:connector-curvature="0"
       id="path16"
       d="m 40.573,96.452 c -0.6,0.622 -1.299,1.283 -2.095,1.983 -0.797,0.699 -1.689,1.346 -2.675,1.939 -0.987,0.594 -2.056,1.084 -3.208,1.473 -1.152,0.389 -2.383,0.584 -3.693,0.584 -2.226,0 -4.163,-0.512 -5.812,-1.531 -1.649,-1.021 -3.019,-2.436 -4.107,-4.244 -1.089,-1.809 -1.898,-3.961 -2.427,-6.46 -0.529,-2.498 -0.793,-5.235 -0.793,-8.21 0,-3.246 0.26,-6.119 0.781,-8.618 0.521,-2.498 1.322,-4.598 2.403,-6.299 1.081,-1.701 2.45,-2.989 4.107,-3.864 1.657,-0.875 3.63,-1.312 5.918,-1.312 1.578,0 2.963,0.263 4.155,0.788 1.191,0.525 2.226,1.269 3.102,2.231 0.876,0.962 1.613,2.114 2.213,3.456 0.6,1.341 1.089,2.829 1.468,4.461 l -6.487,1.576 c -0.426,-1.944 -1.01,-3.388 -1.752,-4.332 -0.742,-0.943 -1.618,-1.415 -2.627,-1.415 -1.137,0 -2.1,0.287 -2.889,0.86 -0.789,0.574 -1.428,1.419 -1.917,2.538 -0.489,1.118 -0.844,2.508 -1.065,4.17 -0.221,1.662 -0.331,3.582 -0.331,5.76 0,4.336 0.528,7.681 1.586,10.033 1.057,2.353 2.667,3.529 4.83,3.529 0.6,0 1.164,-0.083 1.693,-0.248 0.528,-0.166 1.002,-0.36 1.42,-0.584 0.418,-0.223 0.781,-0.457 1.089,-0.699 0.308,-0.244 0.548,-0.453 0.722,-0.627 v -6.854 h -6.487 v -6.358 h 12.879 v 16.274 z" /><path
       style="fill:#ffffff"
       inkscape:connector-curvature="0"
       id="path18"
       d="M 46.207,101.848 V 62.504 h 22.917 v 6.65 H 53.191 v 9.449 H 67.68 v 6.649 H 53.191 v 9.945 h 16.903 v 6.649 H 46.207 z" /><path
       style="fill:#ffffff"
       inkscape:connector-curvature="0"
       id="path20"
       d="M 75.303,101.848 V 62.504 h 22.916 v 6.65 H 82.287 v 9.449 h 14.488 v 6.649 H 82.287 v 9.945 h 16.902 v 6.649 H 75.303 z" /><path
       style="fill:#ffffff"
       inkscape:connector-curvature="0"
       id="path22"
       d="m 122.012,101.848 -7.646,-16.244 -3.006,4.141 v 12.104 h -6.984 V 62.504 h 6.984 v 17.47 l 10.321,-17.47 h 8.12 l -10.891,16.887 11.341,22.457 h -8.239 z" /></g><g
     transform="matrix(1.875,0,0,1.875,-0.49968739,-127.08563)"
     id="g3919"><path
       style="fill:#ffffff"
       inkscape:connector-curvature="0"
       id="path26"
       d="M 21.956,130.176 H 18.799 L 13.9,112.629 h 3.252 l 2.46,10.081 c 0.099,0.39 0.193,0.789 0.285,1.196 0.091,0.408 0.176,0.781 0.253,1.119 0.084,0.398 0.165,0.78 0.243,1.145 0.07,-0.355 0.144,-0.729 0.222,-1.119 0.07,-0.329 0.153,-0.699 0.248,-1.111 0.095,-0.412 0.192,-0.822 0.291,-1.229 l 2.45,-10.081 h 3.22 l -4.868,17.546 z" /><path
       style="fill:#ffffff"
       inkscape:connector-curvature="0"
       id="path28"
       d="m 38.739,130.176 h -3.104 l -0.972,-4.293 h -4.814 l -0.971,4.293 h -3.115 l 4.677,-17.547 h 3.632 l 4.667,17.547 z m -6.483,-15.18 c -0.014,0.088 -0.041,0.239 -0.079,0.456 -0.038,0.217 -0.086,0.464 -0.143,0.741 -0.057,0.277 -0.118,0.579 -0.185,0.904 -0.067,0.324 -0.136,0.644 -0.206,0.955 l -1.14,4.943 h 3.505 l -1.141,-4.943 c -0.07,-0.312 -0.139,-0.631 -0.206,-0.955 -0.067,-0.325 -0.128,-0.627 -0.185,-0.904 -0.056,-0.277 -0.104,-0.524 -0.143,-0.741 -0.039,-0.217 -0.062,-0.368 -0.077,-0.456 z" /><path
       style="fill:#ffffff"
       inkscape:connector-curvature="0"
       id="path30"
       d="m 47.177,130.176 -4.054,-13.137 c 0.056,0.624 0.105,1.223 0.148,1.795 0.021,0.242 0.04,0.494 0.058,0.754 0.018,0.26 0.034,0.514 0.048,0.762 0.014,0.246 0.024,0.48 0.032,0.701 0.007,0.222 0.01,0.419 0.01,0.592 v 8.533 h -2.713 v -17.547 h 3.558 l 4.149,13.488 c -0.057,-0.58 -0.105,-1.157 -0.148,-1.729 -0.035,-0.494 -0.068,-1.013 -0.1,-1.554 -0.032,-0.543 -0.047,-1.03 -0.047,-1.464 v -8.741 h 2.713 v 17.547 h -3.654 z" /><path
       style="fill:#ffffff"
       inkscape:connector-curvature="0"
       id="path32"
       d="m 56.809,121.318 c 0,1.951 0.246,3.455 0.739,4.514 0.493,1.058 1.229,1.586 2.207,1.586 0.316,0 0.605,-0.078 0.866,-0.234 0.26,-0.155 0.494,-0.375 0.702,-0.656 0.208,-0.281 0.391,-0.617 0.549,-1.008 0.158,-0.391 0.297,-0.814 0.417,-1.275 l 2.882,0.677 c -0.218,0.858 -0.491,1.628 -0.818,2.309 -0.328,0.681 -0.715,1.258 -1.162,1.729 -0.447,0.473 -0.958,0.838 -1.531,1.094 -0.574,0.256 -1.22,0.383 -1.938,0.383 -1.07,0 -1.989,-0.219 -2.756,-0.656 -0.767,-0.437 -1.397,-1.056 -1.89,-1.854 -0.493,-0.798 -0.855,-1.756 -1.088,-2.875 -0.232,-1.118 -0.348,-2.362 -0.348,-3.732 0,-1.448 0.12,-2.727 0.359,-3.838 0.239,-1.109 0.607,-2.046 1.104,-2.809 0.496,-0.764 1.121,-1.34 1.874,-1.73 0.753,-0.391 1.64,-0.585 2.661,-0.585 0.732,0 1.381,0.126 1.948,0.377 0.566,0.252 1.063,0.601 1.489,1.048 0.426,0.446 0.787,0.979 1.083,1.6 0.295,0.619 0.535,1.299 0.718,2.035 l -2.872,0.858 c -0.091,-0.416 -0.209,-0.802 -0.354,-1.157 -0.145,-0.355 -0.315,-0.664 -0.512,-0.924 -0.197,-0.26 -0.417,-0.462 -0.66,-0.605 -0.243,-0.143 -0.509,-0.214 -0.797,-0.214 -0.957,0 -1.675,0.501 -2.154,1.503 -0.479,0.999 -0.718,2.479 -0.718,4.439 z" /><path
       style="fill:#ffffff"
       inkscape:connector-curvature="0"
       id="path34"
       d="m 77.988,121.344 c 0,2.992 -0.492,5.256 -1.479,6.79 -0.985,1.534 -2.4,2.302 -4.244,2.302 -1.844,0 -3.261,-0.768 -4.25,-2.302 -0.989,-1.534 -1.483,-3.798 -1.483,-6.79 0,-2.991 0.494,-5.236 1.483,-6.737 0.989,-1.5 2.405,-2.25 4.25,-2.25 1.844,0 3.259,0.75 4.244,2.25 0.987,1.5 1.479,3.746 1.479,6.737 z m -3.156,0 c 0,-2.02 -0.215,-3.52 -0.645,-4.5 -0.43,-0.98 -1.07,-1.47 -1.922,-1.47 -0.852,0 -1.494,0.497 -1.927,1.489 -0.433,0.993 -0.649,2.486 -0.649,4.48 0,1.995 0.216,3.506 0.649,4.533 0.433,1.027 1.075,1.541 1.927,1.541 0.852,0 1.492,-0.514 1.922,-1.541 0.43,-1.027 0.645,-2.537 0.645,-4.532 z" /><path
       style="fill:#ffffff"
       inkscape:connector-curvature="0"
       id="path36"
       d="m 85.072,130.436 c -0.767,0 -1.458,-0.119 -2.074,-0.357 -0.615,-0.238 -1.137,-0.633 -1.562,-1.184 -0.425,-0.551 -0.754,-1.281 -0.982,-2.191 -0.228,-0.91 -0.343,-2.043 -0.343,-3.395 v -10.68 h 3.114 v 10.641 c 0,0.771 0.035,1.424 0.105,1.957 0.07,0.533 0.182,0.963 0.334,1.287 0.15,0.326 0.35,0.561 0.596,0.703 0.246,0.142 0.545,0.215 0.897,0.215 0.352,0 0.658,-0.076 0.919,-0.229 0.26,-0.15 0.479,-0.396 0.654,-0.734 0.175,-0.338 0.307,-0.78 0.391,-1.326 0.084,-0.547 0.127,-1.215 0.127,-2.004 v -10.51 h 3.114 v 10.484 c 0,1.353 -0.123,2.495 -0.369,3.428 -0.247,0.932 -0.601,1.686 -1.062,2.263 -0.461,0.577 -1.018,0.993 -1.668,1.249 -0.65,0.256 -1.38,0.383 -2.191,0.383 z" /><path
       style="fill:#ffffff"
       inkscape:connector-curvature="0"
       id="path38"
       d="m 99.812,130.176 h -3.157 l -4.899,-17.547 h 3.252 l 2.461,10.081 c 0.098,0.39 0.193,0.789 0.285,1.196 0.091,0.408 0.176,0.781 0.253,1.119 0.085,0.398 0.165,0.78 0.243,1.145 0.07,-0.355 0.144,-0.729 0.221,-1.119 0.07,-0.329 0.154,-0.699 0.248,-1.111 0.096,-0.412 0.192,-0.822 0.291,-1.229 l 2.449,-10.081 h 3.221 l -4.868,17.546 z" /><path
       style="fill:#ffffff"
       inkscape:connector-curvature="0"
       id="path40"
       d="m 106.146,130.176 v -17.547 h 10.221 v 2.967 h -7.105 v 4.213 h 6.462 v 2.967 h -6.462 v 4.436 h 7.539 v 2.965 h -10.655 z" /><path
       style="fill:#ffffff"
       inkscape:connector-curvature="0"
       id="path42"
       d="m 127.127,130.176 -3.062,-6.699 h -1.826 v 6.699 h -3.115 v -17.547 h 5.216 c 1.858,0 3.249,0.447 4.171,1.34 0.922,0.894 1.383,2.182 1.383,3.863 0,0.643 -0.074,1.223 -0.222,1.743 -0.148,0.52 -0.353,0.978 -0.612,1.372 -0.261,0.395 -0.57,0.732 -0.93,1.015 -0.358,0.282 -0.753,0.501 -1.182,0.657 l 3.685,7.557 h -3.506 z m -0.37,-12.188 c 0,-0.442 -0.062,-0.814 -0.185,-1.119 -0.123,-0.303 -0.301,-0.548 -0.533,-0.734 -0.232,-0.186 -0.52,-0.32 -0.861,-0.403 -0.341,-0.082 -0.729,-0.124 -1.166,-0.124 h -1.773 v 4.891 h 1.857 c 0.93,0 1.605,-0.214 2.027,-0.643 0.422,-0.43 0.634,-1.052 0.634,-1.868 z" /></g></g>
</svg>